<svg xmlns="http://www.w3.org/2000/svg" width="32" height="32" viewBox="0 0 32 33" fill="none">
  <path d="M26.6666 16.7495V30.0828H5.33322V16.7495" stroke="#FFC87C" stroke-width="2" stroke-linecap="round" stroke-linejoin="round"/>
  <path d="M29.3332 10.0828H2.66653V16.7494H29.3332V10.0828Z" stroke="#FFC87C" stroke-width="2" stroke-linecap="round" stroke-linejoin="round"/>
  <path d="M15.9999 30.0828V10.0828" stroke="#FFC87C" stroke-width="2" stroke-linecap="round" stroke-linejoin="round"/>
  <path d="M15.9999 10.0829H9.99987C9.11581 10.0829 8.26797 9.73174 7.64285 9.10662C7.01772 8.48149 6.66653 7.63365 6.66653 6.74959C6.66653 5.86554 7.01772 5.01769 7.64285 4.39257C8.26797 3.76745 9.11581 3.41626 9.99987 3.41626C14.6665 3.41626 15.9999 10.0829 15.9999 10.0829Z" stroke="#FFC87C" stroke-width="2" stroke-linecap="round" stroke-linejoin="round"/>
  <path d="M15.9999 10.0829H21.9999C22.8839 10.0829 23.7318 9.73174 24.3569 9.10662C24.982 8.48149 25.3332 7.63365 25.3332 6.74959C25.3332 5.86554 24.982 5.01769 24.3569 4.39257C23.7318 3.76745 22.8839 3.41626 21.9999 3.41626C17.3332 3.41626 15.9999 10.0829 15.9999 10.0829Z" stroke="#FFC87C" stroke-width="2" stroke-linecap="round" stroke-linejoin="round"/>
</svg>