<svg xmlns="http://www.w3.org/2000/svg" width="32" height="32" viewBox="0 0 32 32" fill="none">
  <path d="M10.6667 22.6667L16 28.0001L21.3333 22.6667" stroke="#FCFB79" stroke-opacity="0.9" stroke-width="2" stroke-linecap="round" stroke-linejoin="round"/>
  <path d="M16 16V28" stroke="#FCFB79" stroke-opacity="0.9" stroke-width="2" stroke-linecap="round" stroke-linejoin="round"/>
  <path d="M27.84 24.1199C28.9992 23.3048 29.8685 22.1414 30.3217 20.7988C30.7749 19.4561 30.7885 18.0039 30.3605 16.653C29.9325 15.3021 29.0852 14.1227 27.9414 13.286C26.7977 12.4493 25.4171 11.9988 24 11.9999H22.32C21.919 10.4371 21.1687 8.98557 20.1255 7.75468C19.0823 6.52379 17.7735 5.54559 16.2976 4.89372C14.8217 4.24184 13.2171 3.93328 11.6047 3.99127C9.99228 4.04925 8.41402 4.47227 6.98874 5.22848C5.56346 5.98469 4.3283 7.05438 3.37625 8.35702C2.4242 9.65966 1.78007 11.1613 1.49235 12.7489C1.20463 14.3365 1.28082 15.9687 1.71518 17.5226C2.14953 19.0765 2.93075 20.5116 4 21.7199" stroke="#FCFB79" stroke-opacity="0.9" stroke-width="2" stroke-linecap="round" stroke-linejoin="round"/>
</svg>

