<svg xmlns="http://www.w3.org/2000/svg" width="816" height="786" viewBox="0 0 816 786" fill="none">
  <path fill-rule="evenodd" clip-rule="evenodd" d="M814.434 650.286L708.222 548.807C693.026 579.146 672.853 607.493 647.678 632.668C626.248 654.098 602.52 671.903 577.222 686.099L680.183 784.473L678.801 785.919L575.393 687.118C476.735 741.64 354.592 741.602 251.687 687.899L161.315 782.862L159.866 781.483L249.846 686.932C218.641 670.416 189.237 648.943 162.833 622.539C140.48 600.185 121.661 575.682 106.391 549.756L4.29578 657.039L2.84695 655.66L105.34 547.96C46.6766 447.022 41.5535 324.886 90.8613 224.175L0.169673 137.524L1.55131 136.078L91.7891 222.295C107.027 191.677 127.323 163.074 152.703 137.694C173.929 116.467 197.41 98.7969 222.439 84.6677L135.802 1.89126L137.184 0.445197L224.264 83.6452C322.97 28.7655 445.346 28.6285 548.452 82.337L623.438 3.5417L624.887 4.92046L550.294 83.3031C581.588 99.8363 611.076 121.352 637.548 147.824C659.833 170.109 678.606 194.532 693.851 220.371L780.457 129.365L781.906 130.744L694.903 222.167C753.841 323.398 758.891 445.999 709.154 546.931L815.815 648.84L814.434 650.286ZM93.902 227.08C45.9599 326.007 50.9644 445.702 108.212 544.942L212.877 434.96C203.1 402.712 201.61 368.771 208.478 336.551L93.902 227.08ZM208.98 334.265L94.8235 225.194C109.936 194.526 130.165 165.889 155.531 140.522C176.789 119.264 200.344 101.614 225.467 87.5603L339.453 196.468C309.738 204.875 281.909 220.62 258.769 243.76C233.096 269.433 216.526 300.876 208.98 334.265ZM211.894 339.815C205.891 369.915 207.291 401.477 216.054 431.622L253.794 391.964C253.425 387.747 253.236 383.524 253.228 379.307L211.894 339.815ZM253.248 376.561L212.37 337.504C219.505 303.937 235.896 272.29 261.597 246.588C284.812 223.373 312.878 207.755 342.827 199.692L383.542 238.593C350.653 240.948 318.827 254.413 294.124 279.115C267.417 305.823 253.845 340.858 253.248 376.561ZM257.288 383.186C257.335 384.81 257.409 386.435 257.511 388.059L259.833 385.618L257.288 383.186ZM261.212 384.169L257.234 380.369C256.904 344.355 270.11 308.786 296.953 281.943C321.834 257.062 354.213 243.897 387.495 242.37L392.032 246.704L261.212 384.169ZM261.279 387L257.705 390.756C260.445 424.423 275.001 457.784 301.294 484.077C329.262 512.045 365.226 526.733 401.051 528.046L404.79 524.117L261.279 387ZM406.169 522.668L262.658 385.551L321.731 323.478C293.201 361.265 297.241 416.45 333.081 452.29C369.462 488.672 425.777 492.285 463.593 462.327L406.169 522.668ZM406.236 525.498L403.742 528.12C405.488 528.151 407.234 528.151 408.979 528.118L406.236 525.498ZM411.79 528.039L407.615 524.049L538.435 386.584L543.152 391.091C543.207 426.729 529.997 461.849 503.428 488.419C478.274 513.573 445.456 526.753 411.79 528.039ZM413.033 531.992C408.712 532.188 404.376 532.194 400.04 532.009L362.354 571.61C392.846 579.002 424.49 578.977 454.378 571.495L413.033 531.992ZM456.659 570.908L415.77 531.842C449.038 529.704 481.287 516.217 506.256 491.247C532.697 464.807 546.263 430.205 547.11 394.873L587.815 433.765C580.579 466.995 564.253 498.304 538.783 523.774C515.337 547.22 486.944 562.917 456.659 570.908ZM457.788 574.754C425.824 583.206 391.808 583.244 359.185 574.94L254.554 684.886C355.716 737.267 475.427 737.279 572.357 684.217L457.788 574.754ZM574.192 683.205L460.044 574.142C490.091 565.798 518.242 549.972 541.612 526.602C567.054 501.16 583.556 470.048 591.196 436.994L705.19 545.91C690.118 576.299 670.011 604.678 644.849 629.84C623.388 651.302 599.585 669.085 574.192 683.205ZM692.032 225.184C749.552 324.72 754.484 444.879 706.116 544.028L591.707 434.717C598.818 402.132 597.363 367.75 587.416 335.114L692.032 225.184ZM584.242 338.45C593.169 368.988 594.536 400.991 588.301 431.463L547.151 392.146C547.176 387.451 546.978 382.747 546.556 378.05L584.242 338.45ZM542.847 381.947C542.985 384.063 543.076 386.18 543.12 388.295L539.813 385.135L542.847 381.947ZM542.647 379.257L538.367 383.754L473.53 321.805C471.994 320.05 470.389 318.332 468.714 316.658C465.883 313.826 462.931 311.194 459.876 308.76L394.856 246.637L398.98 242.303C434.92 243.533 471.028 258.226 499.086 286.285C525.289 312.487 539.835 345.708 542.647 379.257ZM536.989 385.202L481.555 332.238C504.58 366.467 504.723 410.99 481.517 443.492L536.989 385.202ZM393.478 248.086L449.123 301.252C413.433 279.57 367.929 281.713 336.293 308.175L393.478 248.086ZM396.283 242.236L393.41 245.255L390.285 242.269C392.282 242.216 394.282 242.205 396.283 242.236ZM399.992 238.339C395.409 238.154 390.826 238.182 386.26 238.424L345.099 199.096C375.156 191.411 407.024 191.286 437.733 198.681L399.992 238.339ZM440.904 195.348C408.066 187.041 373.827 187.183 341.698 195.847L227.298 86.5438C324.278 33.1259 444.221 32.9648 545.584 85.3511L440.904 195.348ZM356.973 574.363L252.709 683.923C221.486 667.523 192.063 646.111 165.661 619.71C143.265 597.314 124.46 572.743 109.258 546.744L213.554 437.15C223.159 467.585 240.18 496.437 264.557 520.814C291.26 547.516 323.331 565.393 356.973 574.363ZM397.409 531.873L360.121 571.055C326.384 562.459 294.151 544.751 267.386 517.985C242.9 493.499 225.994 464.437 216.71 433.833L254.048 394.598C257.569 428 272.419 460.859 298.466 486.906C326.236 514.676 361.749 529.718 397.409 531.873ZM546.296 375.422L583.583 336.241C574.281 305.743 557.404 276.786 532.995 252.377C506.152 225.535 473.811 207.801 439.968 199.233L402.63 238.469C438.404 240.548 474.056 255.597 501.915 283.456C527.873 309.415 542.71 342.138 546.296 375.422ZM586.736 332.928L690.985 223.383C675.807 197.471 657.048 172.981 634.719 150.652C608.25 124.183 578.743 102.729 547.43 86.3122L443.119 195.922C476.866 204.868 509.044 222.77 535.823 249.548C560.124 273.849 577.115 302.597 586.736 332.928Z" fill="url(#paint0_linear_117_4)"/>
  <defs>
    <linearGradient id="paint0_linear_117_4" x1="-649.149" y1="-568.908" x2="-869.593" y2="489.205" gradientUnits="userSpaceOnUse">
      <stop stop-color="#FFC87C"/>
      <stop offset="1" stop-color="#003440"/>
    </linearGradient>
  </defs>
</svg>