<svg xmlns="http://www.w3.org/2000/svg" width="180" height="54" viewBox="0 0 180 131" fill="none">
  <path fill-rule="evenodd" clip-rule="evenodd" d="M3 99.6812V3H177V99.6812H3ZM0 2C0 0.895432 0.895431 0 2 0H178C179.105 0 180 0.895431 180 2V100.681C180 101.786 179.105 102.681 178 102.681H93V127.087H109.565C110.394 127.087 111.065 127.759 111.065 128.587C111.065 129.415 110.394 130.087 109.565 130.087H70.4348C69.6064 130.087 68.9348 129.415 68.9348 128.587C68.9348 127.759 69.6064 127.087 70.4348 127.087H90V102.681H2.00001C0.895436 102.681 0 101.786 0 100.681V2ZM148.696 91.2319C147.315 91.2319 146.196 92.3512 146.196 93.7319C146.196 95.1126 147.315 96.2319 148.696 96.2319H172.174C173.555 96.2319 174.674 95.1126 174.674 93.7319C174.674 92.3512 173.555 91.2319 172.174 91.2319H148.696Z" fill="url(#paint0_linear_100_2)"/>
  <defs>
    <linearGradient id="paint0_linear_100_2" x1="-20" y1="-6.5" x2="194" y2="133.5" gradientUnits="userSpaceOnUse">
      <stop stop-color="#FF9400"/>
      <stop offset="1" stop-color="#002D37"/>
    </linearGradient>
  </defs>
</svg>

