<svg xmlns="http://www.w3.org/2000/svg" width="154" height="54" viewBox="0 0 184 124" fill="none">
  <path fill-rule="evenodd" clip-rule="evenodd" d="M3 3V106H181V3H3ZM2 0C0.895431 0 0 0.895432 0 2V107C0 108.105 0.89543 109 2 109H182C183.105 109 184 108.105 184 107V2C184 0.89543 183.105 0 182 0H2ZM48.5 121C48.5 119.619 49.6193 118.5 51 118.5H132.099C133.479 118.5 134.599 119.619 134.599 121C134.599 122.381 133.479 123.5 132.099 123.5H51C49.6193 123.5 48.5 122.381 48.5 121ZM11 17.5C10.1716 17.5 9.5 18.1716 9.5 19C9.5 19.8284 10.1716 20.5 11 20.5H92.0987C92.9271 20.5 93.5987 19.8284 93.5987 19C93.5987 18.1716 92.9271 17.5 92.0987 17.5H11ZM90.5 37C90.5 36.1716 91.1716 35.5 92 35.5H173.099C173.927 35.5 174.599 36.1716 174.599 37C174.599 37.8284 173.927 38.5 173.099 38.5H92C91.1716 38.5 90.5 37.8284 90.5 37ZM32 75.5C31.1716 75.5 30.5 76.1716 30.5 77C30.5 77.8284 31.1716 78.5 32 78.5H113.099C113.927 78.5 114.599 77.8284 114.599 77C114.599 76.1716 113.927 75.5 113.099 75.5H32ZM115.5 62C115.5 61.1716 116.172 60.5 117 60.5H157C157.828 60.5 158.5 61.1716 158.5 62C158.5 62.8284 157.828 63.5 157 63.5H117C116.172 63.5 115.5 62.8284 115.5 62ZM31 35.5C30.1716 35.5 29.5 36.1716 29.5 37C29.5 37.8284 30.1716 38.5 31 38.5H71C71.8284 38.5 72.5 37.8284 72.5 37C72.5 36.1716 71.8284 35.5 71 35.5H31ZM37.5 57C37.5 56.1716 38.1716 55.5 39 55.5H59C59.8284 55.5 60.5 56.1716 60.5 57C60.5 57.8284 59.8284 58.5 59 58.5H39C38.1716 58.5 37.5 57.8284 37.5 57ZM131 17.5C130.172 17.5 129.5 18.1716 129.5 19C129.5 19.8284 130.172 20.5 131 20.5H151C151.828 20.5 152.5 19.8284 152.5 19C152.5 18.1716 151.828 17.5 151 17.5H131Z" fill="url(#paint0_linear_100_118)"/>
  <defs>
    <linearGradient id="paint0_linear_100_118" x1="-20.4444" y1="-6.17087" x2="188.338" y2="140.898" gradientUnits="userSpaceOnUse">
      <stop stop-color="#FF9400"/>
      <stop offset="1" stop-color="#002D37"/>
    </linearGradient>
  </defs>
</svg>

