<svg id="eCIQRZHyJcW1" xmlns="http://www.w3.org/2000/svg" xmlns:xlink="http://www.w3.org/1999/xlink" viewBox="0 0 800 800" shape-rendering="geometricPrecision" text-rendering="geometricPrecision"><g><circle r="4.28947" fill="rgba(112,157,199,0.4)" stroke-width="3.5"/><circle r="4.28947" transform="translate(88.8889 0)" fill="rgba(112,157,199,0.4)" stroke-width="3.5"/><circle r="4.28947" transform="translate(177.778 0)" fill="rgba(112,157,199,0.4)" stroke-width="3.5"/><circle r="4.28947" transform="translate(266.667 0)" fill="rgba(112,157,199,0.4)" stroke-width="3.5"/><circle r="4.28947" transform="translate(355.556 0)" fill="rgba(112,157,199,0.4)" stroke-width="3.5"/><circle r="4.28947" transform="translate(444.444 0)" fill="rgba(112,157,199,0.4)" stroke-width="3.5"/><circle r="4.28947" transform="translate(533.333 0)" fill="rgba(112,157,199,0.4)" stroke-width="3.5"/><circle r="4.28947" transform="translate(622.222 0)" fill="rgba(112,157,199,0.4)" stroke-width="3.5"/><circle r="4.28947" transform="translate(711.111 0)" fill="rgba(112,157,199,0.4)" stroke-width="3.5"/><circle r="4.28947" transform="translate(800 0)" fill="rgba(112,157,199,0.4)" stroke-width="3.5"/><circle r="4.28947" transform="translate(0 88.8889)" fill="rgba(112,157,199,0.4)" stroke-width="3.5"/><circle r="4.28947" transform="translate(88.8889 88.8889)" fill="rgba(112,157,199,0.4)" stroke-width="3.5"/><circle r="4.28947" transform="translate(177.778 88.8889)" fill="rgba(112,157,199,0.4)" stroke-width="3.5"/><circle r="4.28947" transform="translate(266.667 88.8889)" fill="rgba(112,157,199,0.4)" stroke-width="3.5"/><circle r="4.28947" transform="translate(355.556 88.8889)" fill="rgba(112,157,199,0.4)" stroke-width="3.5"/><circle r="4.28947" transform="translate(444.444 88.8889)" fill="rgba(112,157,199,0.4)" stroke-width="3.5"/><circle r="4.28947" transform="translate(533.333 88.8889)" fill="rgba(112,157,199,0.4)" stroke-width="3.5"/><circle r="4.28947" transform="translate(622.222 88.8889)" fill="rgba(112,157,199,0.4)" stroke-width="3.5"/><circle r="4.28947" transform="translate(711.111 88.8889)" fill="rgba(112,157,199,0.4)" stroke-width="3.5"/><circle r="4.28947" transform="translate(800 88.8889)" fill="rgba(112,157,199,0.4)" stroke-width="3.5"/><circle r="4.28947" transform="translate(0 177.778)" fill="rgba(112,157,199,0.4)" stroke-width="3.5"/><circle r="4.28947" transform="translate(88.8889 177.778)" fill="rgba(112,157,199,0.4)" stroke-width="3.5"/><circle r="4.28947" transform="translate(177.778 177.778)" fill="rgba(112,157,199,0.4)" stroke-width="3.5"/><circle r="4.28947" transform="translate(266.667 177.778)" fill="rgba(112,157,199,0.4)" stroke-width="3.5"/><circle r="4.28947" transform="translate(355.556 177.778)" fill="rgba(112,157,199,0.4)" stroke-width="3.5"/><circle r="4.28947" transform="translate(444.444 177.778)" fill="rgba(112,157,199,0.4)" stroke-width="3.5"/><circle r="4.28947" transform="translate(533.333 177.778)" fill="rgba(112,157,199,0.4)" stroke-width="3.5"/><circle r="4.28947" transform="translate(622.222 177.778)" fill="rgba(112,157,199,0.4)" stroke-width="3.5"/><circle r="4.28947" transform="translate(711.111 177.778)" fill="rgba(112,157,199,0.4)" stroke-width="3.5"/><circle r="4.28947" transform="translate(800 177.778)" fill="rgba(112,157,199,0.4)" stroke-width="3.5"/><circle r="4.28947" transform="translate(0 266.667)" fill="rgba(112,157,199,0.4)" stroke-width="3.5"/><circle r="4.28947" transform="translate(88.8889 266.667)" fill="rgba(112,157,199,0.4)" stroke-width="3.5"/><circle r="4.28947" transform="translate(177.778 266.667)" fill="rgba(112,157,199,0.4)" stroke-width="3.5"/><circle r="4.28947" transform="translate(266.667 266.667)" fill="rgba(112,157,199,0.4)" stroke-width="3.5"/><circle r="4.28947" transform="translate(355.556 266.667)" fill="rgba(112,157,199,0.4)" stroke-width="3.5"/><circle r="4.28947" transform="translate(444.444 266.667)" fill="rgba(112,157,199,0.4)" stroke-width="3.5"/><circle r="4.28947" transform="translate(533.333 266.667)" fill="rgba(112,157,199,0.4)" stroke-width="3.5"/><circle r="4.28947" transform="translate(622.222 266.667)" fill="rgba(112,157,199,0.4)" stroke-width="3.5"/><circle r="4.28947" transform="translate(711.111 266.667)" fill="rgba(112,157,199,0.4)" stroke-width="3.5"/><circle r="4.28947" transform="translate(800 266.667)" fill="rgba(112,157,199,0.4)" stroke-width="3.5"/><circle r="4.28947" transform="translate(0 355.556)" fill="rgba(112,157,199,0.4)" stroke-width="3.5"/><circle r="4.28947" transform="translate(88.8889 355.556)" fill="rgba(112,157,199,0.4)" stroke-width="3.5"/><circle r="4.28947" transform="translate(177.778 355.556)" fill="rgba(112,157,199,0.4)" stroke-width="3.5"/><circle r="4.28947" transform="translate(266.667 355.556)" fill="rgba(112,157,199,0.4)" stroke-width="3.5"/><circle r="4.28947" transform="translate(355.556 355.556)" fill="rgba(112,157,199,0.4)" stroke-width="3.5"/><circle r="4.28947" transform="translate(444.444 355.556)" fill="rgba(112,157,199,0.4)" stroke-width="3.5"/><circle r="4.28947" transform="translate(533.333 355.556)" fill="rgba(112,157,199,0.4)" stroke-width="3.5"/><circle r="4.28947" transform="translate(622.222 355.556)" fill="rgba(112,157,199,0.4)" stroke-width="3.5"/><circle r="4.28947" transform="translate(711.111 355.556)" fill="rgba(112,157,199,0.4)" stroke-width="3.5"/><circle r="4.28947" transform="translate(800 355.556)" fill="rgba(112,157,199,0.4)" stroke-width="3.5"/><circle r="4.28947" transform="translate(0 444.444)" fill="rgba(112,157,199,0.4)" stroke-width="3.5"/><circle r="4.28947" transform="translate(88.8889 444.444)" fill="rgba(112,157,199,0.4)" stroke-width="3.5"/><circle r="4.28947" transform="translate(177.778 444.444)" fill="rgba(112,157,199,0.4)" stroke-width="3.5"/><circle r="4.28947" transform="translate(266.667 444.444)" fill="rgba(112,157,199,0.4)" stroke-width="3.5"/><circle r="4.28947" transform="translate(355.556 444.444)" fill="rgba(112,157,199,0.4)" stroke-width="3.5"/><circle r="4.28947" transform="translate(444.444 444.444)" fill="rgba(112,157,199,0.4)" stroke-width="3.5"/><circle r="4.28947" transform="translate(533.333 444.444)" fill="rgba(112,157,199,0.4)" stroke-width="3.5"/><circle r="4.28947" transform="translate(622.222 444.444)" fill="rgba(112,157,199,0.4)" stroke-width="3.5"/><circle r="4.28947" transform="translate(711.111 444.444)" fill="rgba(112,157,199,0.4)" stroke-width="3.5"/><circle r="4.28947" transform="translate(800 444.444)" fill="rgba(112,157,199,0.4)" stroke-width="3.5"/><circle r="4.28947" transform="translate(0 533.333)" fill="rgba(112,157,199,0.4)" stroke-width="3.5"/><circle r="4.28947" transform="translate(88.8889 533.333)" fill="rgba(112,157,199,0.4)" stroke-width="3.5"/><circle r="4.28947" transform="translate(177.778 533.333)" fill="rgba(112,157,199,0.4)" stroke-width="3.5"/><circle r="4.28947" transform="translate(266.667 533.333)" fill="rgba(112,157,199,0.4)" stroke-width="3.5"/><circle r="4.28947" transform="translate(355.556 533.333)" fill="rgba(112,157,199,0.4)" stroke-width="3.5"/><circle r="4.28947" transform="translate(444.444 533.333)" fill="rgba(112,157,199,0.4)" stroke-width="3.5"/><circle r="4.28947" transform="translate(533.333 533.333)" fill="rgba(112,157,199,0.4)" stroke-width="3.5"/><circle r="4.28947" transform="translate(622.222 533.333)" fill="rgba(112,157,199,0.4)" stroke-width="3.5"/><circle r="4.28947" transform="translate(711.111 533.333)" fill="rgba(112,157,199,0.4)" stroke-width="3.5"/><circle r="4.28947" transform="translate(800 533.333)" fill="rgba(112,157,199,0.4)" stroke-width="3.5"/><circle r="4.28947" transform="translate(0 622.222)" fill="rgba(112,157,199,0.4)" stroke-width="3.5"/><circle r="4.28947" transform="translate(88.8889 622.222)" fill="rgba(112,157,199,0.4)" stroke-width="3.5"/><circle r="4.28947" transform="translate(177.778 622.222)" fill="rgba(112,157,199,0.4)" stroke-width="3.5"/><circle r="4.28947" transform="translate(266.667 622.222)" fill="rgba(112,157,199,0.4)" stroke-width="3.5"/><circle r="4.28947" transform="translate(355.556 622.222)" fill="rgba(112,157,199,0.4)" stroke-width="3.5"/><circle r="4.28947" transform="translate(444.444 622.222)" fill="rgba(112,157,199,0.4)" stroke-width="3.5"/><circle r="4.28947" transform="translate(533.333 622.222)" fill="rgba(112,157,199,0.4)" stroke-width="3.5"/><circle r="4.28947" transform="translate(622.222 622.222)" fill="rgba(112,157,199,0.4)" stroke-width="3.5"/><circle r="4.28947" transform="translate(711.111 622.222)" fill="rgba(112,157,199,0.4)" stroke-width="3.5"/><circle r="4.28947" transform="translate(800 622.222)" fill="rgba(112,157,199,0.4)" stroke-width="3.5"/><circle r="4.28947" transform="translate(0 711.111)" fill="rgba(112,157,199,0.4)" stroke-width="3.5"/><circle r="4.28947" transform="translate(88.8889 711.111)" fill="rgba(112,157,199,0.4)" stroke-width="3.5"/><circle r="4.28947" transform="translate(177.778 711.111)" fill="rgba(112,157,199,0.4)" stroke-width="3.5"/><circle r="4.28947" transform="translate(266.667 711.111)" fill="rgba(112,157,199,0.4)" stroke-width="3.5"/><circle r="4.28947" transform="translate(355.556 711.111)" fill="rgba(112,157,199,0.4)" stroke-width="3.5"/><circle r="4.28947" transform="translate(444.444 711.111)" fill="rgba(112,157,199,0.4)" stroke-width="3.5"/><circle r="4.28947" transform="translate(533.333 711.111)" fill="rgba(112,157,199,0.4)" stroke-width="3.5"/><circle r="4.28947" transform="translate(622.222 711.111)" fill="rgba(112,157,199,0.4)" stroke-width="3.5"/><circle r="4.28947" transform="translate(711.111 711.111)" fill="rgba(112,157,199,0.4)" stroke-width="3.5"/><circle r="4.28947" transform="translate(800 711.111)" fill="rgba(112,157,199,0.4)" stroke-width="3.5"/><circle r="4.28947" transform="translate(0 800)" fill="rgba(112,157,199,0.4)" stroke-width="3.5"/><circle r="4.28947" transform="translate(88.8889 800)" fill="rgba(112,157,199,0.4)" stroke-width="3.5"/><circle r="4.28947" transform="translate(177.778 800)" fill="rgba(112,157,199,0.4)" stroke-width="3.5"/><circle r="4.28947" transform="translate(266.667 800)" fill="rgba(112,157,199,0.4)" stroke-width="3.5"/><circle r="4.28947" transform="translate(355.556 800)" fill="rgba(112,157,199,0.4)" stroke-width="3.5"/><circle r="4.28947" transform="translate(444.444 800)" fill="rgba(112,157,199,0.4)" stroke-width="3.5"/><circle r="4.28947" transform="translate(533.333 800)" fill="rgba(112,157,199,0.4)" stroke-width="3.5"/><circle r="4.28947" transform="translate(622.222 800)" fill="rgba(112,157,199,0.4)" stroke-width="3.5"/><circle r="4.28947" transform="translate(711.111 800)" fill="rgba(112,157,199,0.4)" stroke-width="3.5"/><circle r="4.28947" transform="translate(800 800)" fill="rgba(112,157,199,0.4)" stroke-width="3.5"/></g></svg>
